<?xml version="1.0" standalone="no"?>
<!DOCTYPE svg PUBLIC "-//W3C//DTD SVG 20010904//EN"
 "http://www.w3.org/TR/2001/REC-SVG-20010904/DTD/svg10.dtd">
<svg version="1.0" xmlns="http://www.w3.org/2000/svg"
 width="592.000000pt" height="591.000000pt" viewBox="0 0 592.000000 591.000000"
 preserveAspectRatio="xMidYMid meet">

<g transform="translate(0.000000,591.000000) scale(0.100000,-0.100000)"
fill="#000000" stroke="none">
<path d="M83 5891 c-80 -37 -73 166 -73 -2153 0 -2256 -2 -2159 56 -2382 78
-298 228 -566 443 -788 285 -297 586 -458 1011 -545 79 -16 244 -17 2182 -20
2313 -4 2147 -8 2188 59 20 33 20 38 17 2900 l-2 2867 -29 30 c-17 17 -46 36
-65 41 -23 6 -1031 10 -2861 10 -2754 0 -2826 -1 -2867 -19z m3948 -1901 c71
-156 127 -290 125 -297 -4 -9 -26 -13 -65 -13 -61 0 -61 0 -81 40 l-20 40
-109 0 -109 0 -19 -37 c-17 -37 -20 -38 -77 -41 -32 -2 -63 1 -68 6 -8 8 229
548 255 580 5 7 17 12 25 10 8 -2 71 -128 143 -288z m-3003 250 c90 -39 100
-69 42 -125 l-30 -29 -46 23 c-179 90 -325 -151 -164 -271 30 -22 88 -33 124
-24 22 5 26 12 26 41 0 29 -3 34 -27 37 -27 3 -28 5 -28 58 l0 55 86 3 c65 2
89 -1 98 -12 8 -9 11 -54 9 -142 l-3 -129 -60 -24 c-89 -37 -200 -36 -277 2
-203 100 -225 383 -39 512 84 58 191 67 289 25z m1010 -120 l157 -150 3 132
c1 79 7 137 14 145 8 10 29 13 67 11 l56 -3 3 -288 c2 -257 1 -288 -14 -294
-11 -4 -62 40 -180 158 l-163 163 -3 -154 -3 -155 -53 -3 c-31 -2 -60 2 -68 9
-11 9 -14 61 -14 283 0 268 3 296 33 296 5 0 79 -68 165 -150z m-370 87 c5
-73 -3 -77 -129 -77 l-109 0 0 -45 0 -45 88 0 c55 0 92 -4 100 -12 7 -7 12
-30 12 -53 0 -23 -5 -46 -12 -53 -8 -8 -45 -12 -100 -12 l-88 0 0 -50 0 -50
108 0 c71 0 112 -4 120 -12 16 -16 15 -93 -2 -107 -9 -8 -68 -11 -187 -9
l-174 3 -3 275 c-1 151 0 281 3 288 3 10 46 12 187 10 l183 -3 3 -48z m1260 0
c5 -73 -3 -77 -129 -77 l-109 0 0 -45 0 -45 89 0 c104 0 114 -7 109 -77 l-3
-48 -97 -3 -98 -3 0 -49 0 -50 109 0 c126 0 134 -4 129 -77 l-3 -48 -174 -3
c-119 -2 -178 1 -187 9 -19 16 -21 538 -2 557 9 9 60 12 188 10 l175 -3 3 -48z
m264 41 c8 -7 43 -77 78 -155 35 -79 64 -142 65 -140 1 1 30 65 65 142 34 77
69 146 78 153 23 18 121 16 128 -3 6 -14 -235 -547 -257 -570 -6 -6 -15 -6
-25 0 -26 16 -273 558 -261 573 5 7 32 12 61 12 29 0 59 -6 68 -12z m-905
-1243 c73 -159 129 -293 124 -298 -4 -4 -35 -7 -67 -5 -57 3 -60 4 -79 40
l-20 38 -111 0 -111 0 -16 -40 -15 -40 -66 0 c-53 0 -66 3 -66 15 0 13 217
502 252 568 23 44 43 11 175 -278z m1902 5 c73 -159 130 -294 126 -300 -3 -5
-33 -10 -65 -10 -59 0 -60 0 -80 40 l-20 40 -110 0 -110 0 -17 -37 c-18 -37
-20 -38 -77 -41 -32 -2 -63 1 -68 6 -6 6 38 113 112 278 132 292 144 314 164
314 8 0 67 -118 145 -290z m-3160 249 c90 -40 100 -66 46 -119 l-35 -34 -49
24 c-181 84 -322 -153 -161 -272 30 -22 88 -33 124 -24 22 5 26 12 26 41 0 29
-3 34 -27 37 -27 3 -28 5 -28 58 l0 55 86 3 c65 2 89 -1 98 -12 8 -9 11 -54 9
-142 l-3 -129 -60 -24 c-90 -37 -200 -36 -277 2 -132 65 -195 211 -153 354 51
170 239 255 404 182z m627 2 c77 -35 116 -117 100 -205 -7 -35 -53 -93 -91
-114 -19 -10 -18 -15 38 -121 66 -125 66 -124 -29 -119 l-59 3 -55 107 c-53
103 -56 108 -87 108 l-32 0 -3 -107 -3 -108 -53 -3 c-31 -2 -60 2 -68 9 -19
16 -21 538 -2 557 8 8 57 12 158 12 120 0 152 -4 186 -19z m1194 3 c74 -22
159 -107 183 -183 36 -112 12 -206 -73 -292 -77 -78 -119 -90 -286 -87 l-129
3 -3 275 c-1 151 0 280 3 287 7 20 237 17 305 -3z m478 4 c8 -8 12 -66 12
-196 l0 -184 30 -30 c27 -27 36 -30 72 -25 79 11 82 21 88 245 l5 197 65 0 65
0 3 -195 c3 -224 -3 -253 -69 -319 -105 -105 -276 -87 -364 38 l-30 43 -3 205
c-2 113 -1 212 2 219 7 18 107 19 124 2z m1410 0 c7 -7 12 -30 12 -53 0 -23
-5 -46 -12 -53 -7 -7 -38 -12 -70 -12 l-58 0 -2 -222 -3 -223 -53 -3 c-31 -2
-60 2 -68 9 -11 9 -14 53 -14 225 l0 214 -53 0 c-29 0 -58 5 -65 12 -16 16
-16 90 0 106 8 8 66 12 193 12 127 0 185 -4 193 -12z m510 0 c7 -7 12 -30 12
-53 0 -23 -5 -46 -12 -53 -8 -8 -50 -12 -125 -12 l-113 0 0 -45 0 -45 93 0
c59 0 97 -4 105 -12 7 -7 12 -30 12 -53 0 -23 -5 -46 -12 -53 -8 -8 -46 -12
-105 -12 l-93 0 0 -50 0 -50 113 0 c75 0 117 -4 125 -12 16 -16 15 -93 -2
-107 -9 -8 -68 -11 -187 -9 l-174 3 -3 275 c-1 151 0 280 3 287 6 18 345 19
363 1z m-4079 -1116 l160 -153 3 148 3 148 56 3 c39 2 59 -1 68 -11 8 -11 11
-89 9 -287 -3 -247 -5 -274 -20 -284 -15 -9 -42 13 -183 154 l-164 164 -3
-154 -3 -155 -60 0 -60 0 -3 280 c-1 154 0 286 3 293 3 7 11 12 19 10 8 -2 87
-72 175 -156z m717 143 c27 -8 63 -26 79 -39 l30 -24 -19 -36 c-32 -60 -39
-62 -105 -32 -70 31 -83 32 -105 7 -27 -30 -6 -56 82 -100 90 -45 146 -101
156 -154 20 -107 -76 -207 -198 -207 -76 0 -185 46 -186 78 0 18 39 92 49 92
5 0 34 -12 65 -26 63 -29 99 -27 116 7 17 31 -12 66 -76 95 -30 13 -74 42 -99
65 -152 140 1 337 211 274z m-1107 -9 c8 -9 11 -94 9 -287 l-3 -274 -65 0 -65
0 -3 274 c-2 193 1 278 9 287 7 8 31 14 59 14 28 0 52 -6 59 -14z m1719 2 c16
-16 16 -90 0 -106 -7 -7 -38 -12 -70 -12 l-58 0 -2 -222 -3 -223 -60 0 -60 0
-3 223 -2 222 -58 0 c-32 0 -63 5 -70 12 -7 7 -12 30 -12 53 0 23 5 46 12 53
8 8 66 12 193 12 127 0 185 -4 193 -12z m260 0 c19 -19 17 -541 -2 -557 -8 -7
-37 -11 -68 -9 l-53 3 -3 275 c-1 151 0 280 3 287 6 17 107 17 123 1z m527
-53 l0 -60 -62 -3 -63 -3 -2 -222 -3 -222 -53 -3 c-31 -2 -60 2 -68 9 -11 9
-14 53 -14 225 l0 214 -53 0 c-29 0 -58 5 -65 12 -16 16 -15 91 0 106 9 9 62
12 198 10 l185 -3 0 -60z m265 -130 c3 -104 9 -198 14 -208 10 -21 57 -47 85
-47 11 0 31 5 44 11 47 21 52 42 57 244 l5 190 53 3 c85 5 84 8 80 -217 -3
-168 -6 -201 -22 -231 -57 -108 -172 -160 -283 -129 -67 18 -145 97 -161 161
-17 65 -16 390 0 406 8 8 34 12 68 10 l55 -3 5 -190z m848 183 c7 -7 12 -30
12 -53 0 -54 -13 -65 -77 -65 l-53 0 0 -214 c0 -172 -3 -216 -14 -225 -8 -7
-37 -11 -68 -9 l-53 3 -3 222 -2 222 -63 3 -62 3 -3 49 c-5 80 -15 76 191 76
129 0 187 -4 195 -12z m510 0 c7 -7 12 -30 12 -53 0 -23 -5 -46 -12 -53 -8 -8
-50 -12 -125 -12 l-113 0 0 -45 0 -45 93 0 c59 0 97 -4 105 -12 7 -7 12 -30
12 -53 0 -23 -5 -46 -12 -53 -8 -8 -46 -12 -105 -12 l-93 0 0 -50 0 -50 113 0
c75 0 117 -4 125 -12 16 -16 15 -93 -2 -107 -9 -8 -68 -11 -187 -9 l-174 3 -3
275 c-1 151 0 280 3 287 6 18 345 19 363 1z"/>
<path d="M3861 3987 c-12 -27 -24 -60 -27 -73 -6 -23 -4 -24 50 -24 l56 0 -21
53 c-12 28 -25 61 -29 72 -7 17 -11 13 -29 -28z"/>
<path d="M2106 2984 c-15 -42 -26 -78 -23 -80 3 -3 29 -4 59 -2 l54 3 -31 77
-31 77 -28 -75z"/>
<path d="M4010 2983 c-14 -37 -26 -71 -28 -75 -2 -5 24 -8 58 -8 34 0 60 4 58
8 -1 4 -14 38 -27 75 -14 37 -27 67 -30 67 -4 0 -17 -30 -31 -67z"/>
<path d="M1440 3095 l0 -56 82 3 c77 3 83 5 97 29 13 24 13 29 -2 53 -16 24
-22 26 -97 26 l-80 0 0 -55z"/>
<path d="M2680 2990 l0 -160 53 0 c105 0 167 59 167 160 0 101 -62 160 -167
160 l-53 0 0 -160z"/>
</g>
</svg>
